#
#
#

mtllib cube.mtl


#
# Maillage Maillage Maillage Maillage Maillage
#
g Maillage Maillage Maillage Maillage Maillage

v 206.185791 421.196686 280.875153
v 206.185791 221.196686 280.875153
v 49.173203 221.196686 404.758331
v 330.068970 421.196686 437.887756
v 330.068970 221.196686 437.887756
v 173.056396 421.196686 561.770935
v 173.056396 221.196686 561.770935
v 49.173203 421.196686 404.758331
v -100.446274 436.787476 127.072540
v -100.446274 236.787476 127.072540
v -257.458862 236.787476 250.955719
v 23.436905 436.787476 284.085144
v 23.436905 236.787476 284.085144
v -133.575699 436.787476 407.968323
v -133.575699 236.787476 407.968323
v -257.458862 436.787476 250.955719
vn -0.185251 0.408248 -0.893877
vn 0.316904 -0.666667 -0.674631
vn -0.826252 -0.408248 -0.388126
vn 0.729847 0.666667 -0.151257
vn 0.826252 -0.408248 0.388126
vn 0.185251 0.408248 0.893877
vn -0.316904 -0.666667 0.674631
vn -0.729847 0.666667 0.151257
f 1//1 2//2 3//3
f 4//4 5//5 2//2
f 6//6 7//7 5//5
f 8//8 3//3 7//7
f 2//2 5//5 7//7
f 4//4 1//1 8//8
f 8//8 1//1 3//3
f 1//1 4//4 2//2
f 4//4 6//6 5//5
f 6//6 8//8 7//7
f 3//3 2//2 7//7
f 6//6 4//4 8//8
f 9//1 10//2 11//3
f 12//4 13//5 10//2
f 14//6 15//7 13//5
f 16//8 11//3 15//7
f 10//2 13//5 15//7
f 12//4 9//1 16//8
f 16//8 9//1 11//3
f 9//1 12//4 10//2
f 12//4 14//6 13//5
f 14//6 16//8 15//7
f 11//3 10//2 15//7
f 14//6 12//4 16//8
