#
#
#

mtllib dia.mtl


#
# Object001 Mesh Mesh Mesh Mesh Mesh
#
g Object001 Mesh Mesh Mesh Mesh Mesh

v 94.655220 31.201395 -563.360352
v -47.643826 -91.779816 -557.968506
v -88.485054 67.447609 -586.776611
v 11.757859 67.552292 -728.312134
v 52.599091 -91.675133 -699.503906
v -130.541183 -55.428944 -722.920410
vn -0.776336 0.308588 -0.549614
vn -0.095623 0.699084 -0.708617
vn 0.580562 -0.677558 -0.451512
vn -0.232762 -0.678408 0.696839
vn -0.700675 0.698452 0.145671
vn 0.642447 0.616286 0.455470
f 1//1 2//2 3//3
f 1//1 3//3 4//4
f 1//1 4//4 5//5
f 1//1 5//5 2//2
f 6//6 5//5 4//4
f 6//6 4//4 3//3
f 6//6 3//3 2//2
f 6//6 2//2 1//1
f 6//6 1//1 5//5
